<?xml version="1.0" encoding="UTF-8"?>
<svg xmlns="http://www.w3.org/2000/svg" version="1.1" xmlns:xlink="http://www.w3.org/1999/xlink" viewBox="0 0 64 64">
  <!-- Generator: Adobe Illustrator 29.3.1, SVG Export Plug-In . SVG Version: 2.1.0 Build 151)  -->
  <defs>
    <style>
      .st0, .st1, .st2, .st3 {
        stroke-linecap: round;
        stroke-linejoin: round;
      }

      .st0, .st2 {
        stroke: #a39f9f;
      }

      .st0, .st3 {
        stroke-width: 1.5px;
      }

      .st4 {
        mask: url(#mask);
      }

      .st1, .st2 {
        stroke-width: 2px;
      }

      .st1, .st3 {
        fill: #fff;
        stroke: #fff;
      }

      .st5 {
        mix-blend-mode: color-burn;
        opacity: .7;
      }

      .st6 {
        isolation: isolate;
      }

      .st7 {
        filter: url(#luminosity-invert);
      }
    </style>
    <filter id="luminosity-invert" x="12" y="9" width="29" height="38" color-interpolation-filters="sRGB" filterUnits="userSpaceOnUse">
      <feColorMatrix result="cm" values="-1 0 0 0 1 0 -1 0 0 1 0 0 -1 0 1 0 0 0 1 0"/>
    </filter>
    <mask id="mask" x="12" y="9" width="29" height="38" maskUnits="userSpaceOnUse">
      <g class="st7">
        <image width="29" height="38" transform="translate(12 9)" xlink:href="ChefHatIcon)_edited-1.png"/>
      </g>
    </mask>
  </defs>
  <g class="st6">
    <g id="Layer_1">
      <path d="M43.4,11c-6.7-3.8-15.3-1.5-19.1,5.2s-1.3,3-1.5,4.5c-1.5-.1-4.1,1.4-5.6,4s-.7,7.6,2.6,9.5l15.6,8.9c3.4,1.9,7.6.7,9.5-2.6,1.5-2.6,1.4-5.7-.3-7.4,1.2-1,2.3-2.2,3.1-3.6,3.8-6.7,1.5-15.3-5.2-19.1l.9.5h0ZM15.1,36.3l-3,5.2c-1.1,1.9-.4,4.4,1.5,5.5l13.9,7.9c1.9,1.1,4.4.4,5.5-1.5l3-5.2-20.8-11.9h-.1Z"/>
    </g>
    <g id="Layer_2">
      <g>
        <line class="st0" x1="14.9" y1="44" x2="17.1" y2="40"/>
        <path class="st2" d="M25.9,20.7s1.7-4.6,4.9-6.3c5.2-2.7,6.7-1.1,6.7-1.1"/>
      </g>
      <g class="st4">
        <g class="st5">
          <g>
            <line class="st3" x1="14.9" y1="44" x2="17.1" y2="40"/>
            <path class="st1" d="M25.9,20.7s1.7-4.6,4.9-6.3c5.2-2.7,6.7-1.1,6.7-1.1"/>
          </g>
        </g>
      </g>
    </g>
  </g>
</svg>