<?xml version="1.0" encoding="UTF-8"?>
<svg id="Layer_1" xmlns="http://www.w3.org/2000/svg" version="1.1" viewBox="0 0 64 64">
  <!-- Generator: Adobe Illustrator 29.3.1, SVG Export Plug-In . SVG Version: 2.1.0 Build 151)  -->
  <path d="M43.4,11c-6.7-3.8-15.3-1.5-19.1,5.2s-1.3,3-1.5,4.5c-1.5-.1-4.1,1.4-5.6,4s-.7,7.6,2.6,9.5l15.6,8.9c3.4,1.9,7.6.7,9.5-2.6,1.5-2.6,1.4-5.7-.3-7.4,1.2-1,2.3-2.2,3.1-3.6,3.8-6.7,1.5-15.3-5.2-19.1l.9.5ZM15.1,36.3l-3,5.2c-1.1,1.9-.4,4.4,1.5,5.5l13.9,7.9c1.9,1.1,4.4.4,5.5-1.5l3-5.2-20.8-11.9Z"/>
</svg>